ffmpeg started on 2026-01-13 at 10:26:39
Report written to "D:\Convert\FFMetrics\reports\ssim_report-6.txt"
Log level: 32
Command line:
ffmpeg -hide_banner -nostdin -r 24000/1001 -i "F:\\Convert\\files\\[DC] Make Heroine ga Oosugiru - 07_Telegram_HEVC(116).mkv" -r 24000/1001 -i "F:\\Convert\\files\\[DC] Make Heroine ga Oosugiru - 07_Telegram.mp4" -lavfi "[0:v]settb=AVTB,setpts=PTS-STARTPTS,format=pix_fmts=yuv420p10le,fps=24000/1001,scale=1920:1080:flags=lanczos:param0=3:out_range=limited:out_color_matrix=bt709:out_chroma_loc=left,setsar=1/1,setdar=(1920/1080)*(1/1),colorspace=format=yuv420p10:range=tv:primaries=bt709:trc=bt709:space=bt709:fast=0[main];[1:v]settb=AVTB,setpts=PTS-STARTPTS,format=pix_fmts=yuv420p,fps=24000/1001,scale=1920:1080:flags=lanczos:param0=3:out_range=limited:out_color_matrix=bt709:out_chroma_loc=left,setsar=1.000,setdar=1.778,colorspace=format=yuv420p:range=tv:primaries=bt709:trc=bt709:space=bt709:fast=0[ref];[main][ref]ssim=eof_action=endall:stats_file='D\\:/Convert/FFMetrics/logs/ssim_logfile-6.txt'" -f null -
Input #0, matroska,webm, from 'F:\Convert\files\[DC] Make Heroine ga Oosugiru - 07_Telegram_HEVC(116).mkv':
  Metadata:
    COMPATIBLE_BRANDS: isomiso2avc1mp41
    MAJOR_BRAND     : isom
    MINOR_VERSION   : 512
    ENCODER         : Lavf61.7.100
  Duration: 00:24:06.79, start: -0.021000, bitrate: 973 kb/s
  Stream #0:0: Video: hevc (Main 10), yuv420p10le(tv, bt709, progressive), 1920x1080 [SAR 1:1 DAR 16:9], 23.98 fps, 23.98 tbr, 1k tbn (default)
      Metadata:
        HANDLER_NAME    : VideoHandler
        VENDOR_ID       : [0][0][0][0]
        ENCODER         : Lavc61.19.100 libx265
        BPS             : 776061
        DURATION        : 00:24:06.569708333
        NUMBER_OF_FRAMES: 34683
        NUMBER_OF_BYTES : 140328367
        _STATISTICS_WRITING_APP: mkvpropedit v94.0 ('Initiate') 64-bit
        _STATISTICS_WRITING_DATE_UTC: 2026-01-12 15:02:57
        _STATISTICS_TAGS: BPS DURATION NUMBER_OF_FRAMES NUMBER_OF_BYTES
  Stream #0:1: Audio: aac (LC), 48000 Hz, stereo, fltp (default)
      Metadata:
        HANDLER_NAME    : SoundHandler
        VENDOR_ID       : [0][0][0][0]
        ENCODER         : Lavc61.19.100 aac
        BPS             : 193194
        DURATION        : 00:24:06.784000000
        NUMBER_OF_FRAMES: 67819
        NUMBER_OF_BYTES : 34938755
        _STATISTICS_WRITING_APP: mkvpropedit v94.0 ('Initiate') 64-bit
        _STATISTICS_WRITING_DATE_UTC: 2026-01-12 15:02:57
        _STATISTICS_TAGS: BPS DURATION NUMBER_OF_FRAMES NUMBER_OF_BYTES
Input #1, mov,mp4,m4a,3gp,3g2,mj2, from 'F:\Convert\files\[DC] Make Heroine ga Oosugiru - 07_Telegram.mp4':
  Metadata:
    major_brand     : isom
    minor_version   : 512
    compatible_brands: isomiso2avc1mp41
    encoder         : Lavf60.16.100
  Duration: 00:24:06.74, start: 0.000000, bitrate: 3764 kb/s
  Stream #1:0[0x1](und): Video: h264 (High) (avc1 / 0x31637661), yuv420p(tv, bt709, progressive), 1920x1080 [SAR 1:1 DAR 16:9], 3616 kb/s, 23.98 fps, 23.98 tbr, 24k tbn (default)
      Metadata:
        handler_name    : VideoHandler
        vendor_id       : [0][0][0][0]
        encoder         : Lavc60.31.102 h264_qsv
  Stream #1:1[0x2](und): Audio: aac (HE-AACv2) (mp4a / 0x6134706D), 48000 Hz, stereo, fltp, 144 kb/s (default)
      Metadata:
        handler_name    : SoundHandler
        vendor_id       : [0][0][0][0]
Stream mapping:
  Stream #0:0 (hevc) -> settb:default
  Stream #1:0 (h264) -> settb:default
  ssim:default -> Stream #0:0 (wrapped_avframe)
  Stream #0:1 -> #0:1 (aac (native) -> pcm_s16le (native))
Output #0, null, to 'pipe:':
  Metadata:
    COMPATIBLE_BRANDS: isomiso2avc1mp41
    MAJOR_BRAND     : isom
    MINOR_VERSION   : 512
    encoder         : Lavf61.7.100
  Stream #0:0: Video: wrapped_avframe, yuv420p10le(tv, bt709, progressive), 1920x1080 [SAR 1:1 DAR 16:9], q=2-31, 200 kb/s, 23.98 fps, 23.98 tbn
      Metadata:
        encoder         : Lavc61.19.100 wrapped_avframe
  Stream #0:1: Audio: pcm_s16le, 48000 Hz, stereo, s16, 1536 kb/s (default)
      Metadata:
        HANDLER_NAME    : SoundHandler
        VENDOR_ID       : [0][0][0][0]
        _STATISTICS_TAGS: BPS DURATION NUMBER_OF_FRAMES NUMBER_OF_BYTES
        BPS             : 193194
        DURATION        : 00:24:06.784000000
        NUMBER_OF_FRAMES: 67819
        NUMBER_OF_BYTES : 34938755
        _STATISTICS_WRITING_APP: mkvpropedit v94.0 ('Initiate') 64-bit
        _STATISTICS_WRITING_DATE_UTC: 2026-01-12 15:02:57
        encoder         : Lavc61.19.100 pcm_s16le
frame=   95 fps=0.0 q=-0.0 size=N/A time=00:00:03.96 bitrate=N/A speed=7.88x    frame=  267 fps=260 q=-0.0 size=N/A time=00:00:11.13 bitrate=N/A speed=10.8x    frame=  359 fps=234 q=-0.0 size=N/A time=00:00:14.97 bitrate=N/A speed=9.75x    frame=  521 fps=254 q=-0.0 size=N/A time=00:00:21.73 bitrate=N/A speed=10.6x    frame=  696 fps=270 q=-0.0 size=N/A time=00:00:29.02 bitrate=N/A speed=11.3x    frame=  877 fps=284 q=-0.0 size=N/A time=00:00:36.57 bitrate=N/A speed=11.9x    frame=  999 fps=278 q=-0.0 size=N/A time=00:00:41.66 bitrate=N/A speed=11.6x    frame= 1162 fps=282 q=-0.0 size=N/A time=00:00:48.46 bitrate=N/A speed=11.8x    frame= 1310 fps=283 q=-0.0 size=N/A time=00:00:54.63 bitrate=N/A speed=11.8x    frame= 1462 fps=284 q=-0.0 size=N/A time=00:01:00.97 bitrate=N/A speed=11.8x    frame= 1595 fps=282 q=-0.0 size=N/A time=00:01:06.52 bitrate=N/A speed=11.7x    frame= 1739 fps=281 q=-0.0 size=N/A time=00:01:12.53 bitrate=N/A speed=11.7x    frame= 1891 fps=282 q=-0.0 size=N/A time=00:01:18.87 bitrate=N/A speed=11.8x    frame= 2036 fps=282 q=-0.0 size=N/A time=00:01:24.91 bitrate=N/A speed=11.8x    frame= 2118 fps=274 q=-0.0 size=N/A time=00:01:28.33 bitrate=N/A speed=11.4x    frame= 2261 fps=274 q=-0.0 size=N/A time=00:01:34.30 bitrate=N/A speed=11.4x    frame= 2400 fps=274 q=-0.0 size=N/A time=00:01:40.10 bitrate=N/A speed=11.4x    frame= 2525 fps=272 q=-0.0 size=N/A time=00:01:45.31 bitrate=N/A speed=11.4x    frame= 2679 fps=274 q=-0.0 size=N/A time=00:01:51.73 bitrate=N/A speed=11.4x    frame= 2833 fps=275 q=-0.0 size=N/A time=00:01:58.15 bitrate=N/A speed=11.5x    frame= 3006 fps=278 q=-0.0 size=N/A time=00:02:05.37 bitrate=N/A speed=11.6x    frame= 3170 fps=280 q=-0.0 size=N/A time=00:02:12.21 bitrate=N/A speed=11.7x    frame= 3348 fps=283 q=-0.0 size=N/A time=00:02:19.63 bitrate=N/A speed=11.8x    frame= 3517 fps=284 q=-0.0 size=N/A time=00:02:26.68 bitrate=N/A speed=11.9x    frame= 3686 fps=286 q=-0.0 size=N/A time=00:02:33.73 bitrate=N/A speed=11.9x    frame= 3813 fps=285 q=-0.0 size=N/A time=00:02:39.03 bitrate=N/A speed=11.9x    frame= 3996 fps=287 q=-0.0 size=N/A time=00:02:46.66 bitrate=N/A speed=  12x    frame= 4170 fps=289 q=-0.0 size=N/A time=00:02:53.92 bitrate=N/A speed=  12x    frame= 4342 fps=290 q=-0.0 size=N/A time=00:03:01.09 bitrate=N/A speed=12.1x    frame= 4495 fps=290 q=-0.0 size=N/A time=00:03:07.47 bitrate=N/A speed=12.1x    frame= 4665 fps=292 q=-0.0 size=N/A time=00:03:14.56 bitrate=N/A speed=12.2x    frame= 4836 fps=293 q=-0.0 size=N/A time=00:03:21.70 bitrate=N/A speed=12.2x    frame= 5010 fps=294 q=-0.0 size=N/A time=00:03:28.95 bitrate=N/A speed=12.3x    frame= 5178 fps=295 q=-0.0 size=N/A time=00:03:35.96 bitrate=N/A speed=12.3x    frame= 5347 fps=296 q=-0.0 size=N/A time=00:03:43.01 bitrate=N/A speed=12.3x    frame= 5520 fps=297 q=-0.0 size=N/A time=00:03:50.23 bitrate=N/A speed=12.4x    frame= 5697 fps=298 q=-0.0 size=N/A time=00:03:57.61 bitrate=N/A speed=12.4x    frame= 5832 fps=297 q=-0.0 size=N/A time=00:04:03.24 bitrate=N/A speed=12.4x    frame= 6015 fps=299 q=-0.0 size=N/A time=00:04:10.87 bitrate=N/A speed=12.5x    frame= 6188 fps=300 q=-0.0 size=N/A time=00:04:18.09 bitrate=N/A speed=12.5x    frame= 6362 fps=301 q=-0.0 size=N/A time=00:04:25.34 bitrate=N/A speed=12.5x    frame= 6528 fps=301 q=-0.0 size=N/A time=00:04:32.27 bitrate=N/A speed=12.6x    frame= 6695 fps=302 q=-0.0 size=N/A time=00:04:39.23 bitrate=N/A speed=12.6x    frame= 6857 fps=302 q=-0.0 size=N/A time=00:04:45.99 bitrate=N/A speed=12.6x    frame= 7032 fps=303 q=-0.0 size=N/A time=00:04:53.29 bitrate=N/A speed=12.6x    frame= 7212 fps=304 q=-0.0 size=N/A time=00:05:00.80 bitrate=N/A speed=12.7x    frame= 7393 fps=305 q=-0.0 size=N/A time=00:05:08.34 bitrate=N/A speed=12.7x    frame= 7560 fps=305 q=-0.0 size=N/A time=00:05:15.31 bitrate=N/A speed=12.7x    frame= 7717 fps=305 q=-0.0 size=N/A time=00:05:21.86 bitrate=N/A speed=12.7x    frame= 7898 fps=306 q=-0.0 size=N/A time=00:05:29.41 bitrate=N/A speed=12.8x    frame= 8045 fps=306 q=-0.0 size=N/A time=00:05:35.54 bitrate=N/A speed=12.8x    frame= 8228 fps=307 q=-0.0 size=N/A time=00:05:43.17 bitrate=N/A speed=12.8x    frame= 8399 fps=307 q=-0.0 size=N/A time=00:05:50.30 bitrate=N/A speed=12.8x    frame= 8571 fps=308 q=-0.0 size=N/A time=00:05:57.48 bitrate=N/A speed=12.8x    frame= 8723 fps=307 q=-0.0 size=N/A time=00:06:03.82 bitrate=N/A speed=12.8x    frame= 8901 fps=308 q=-0.0 size=N/A time=00:06:11.24 bitrate=N/A speed=12.8x    frame= 9050 fps=308 q=-0.0 size=N/A time=00:06:17.46 bitrate=N/A speed=12.8x    frame= 9236 fps=309 q=-0.0 size=N/A time=00:06:25.21 bitrate=N/A speed=12.9x    frame= 9410 fps=309 q=-0.0 size=N/A time=00:06:32.47 bitrate=N/A speed=12.9x    frame= 9584 fps=310 q=-0.0 size=N/A time=00:06:39.73 bitrate=N/A speed=12.9x    frame= 9734 fps=309 q=-0.0 size=N/A time=00:06:45.98 bitrate=N/A speed=12.9x    frame= 9916 fps=310 q=-0.0 size=N/A time=00:06:53.57 bitrate=N/A speed=12.9x    frame=10083 fps=310 q=-0.0 size=N/A time=00:07:00.54 bitrate=N/A speed=12.9x    frame=10256 fps=311 q=-0.0 size=N/A time=00:07:07.76 bitrate=N/A speed=  13x    frame=10420 fps=311 q=-0.0 size=N/A time=00:07:14.60 bitrate=N/A speed=  13x    frame=10593 fps=311 q=-0.0 size=N/A time=00:07:21.81 bitrate=N/A speed=  13x    frame=10744 fps=311 q=-0.0 size=N/A time=00:07:28.11 bitrate=N/A speed=  13x    frame=10923 fps=311 q=-0.0 size=N/A time=00:07:35.58 bitrate=N/A speed=  13x    frame=11094 fps=312 q=-0.0 size=N/A time=00:07:42.71 bitrate=N/A speed=  13x    frame=11264 fps=312 q=-0.0 size=N/A time=00:07:49.80 bitrate=N/A speed=  13x    frame=11412 fps=312 q=-0.0 size=N/A time=00:07:55.97 bitrate=N/A speed=  13x    frame=11589 fps=312 q=-0.0 size=N/A time=00:08:03.35 bitrate=N/A speed=  13x    frame=11747 fps=312 q=-0.0 size=N/A time=00:08:09.94 bitrate=N/A speed=  13x    frame=11903 fps=312 q=-0.0 size=N/A time=00:08:16.45 bitrate=N/A speed=  13x    frame=12078 fps=312 q=-0.0 size=N/A time=00:08:23.75 bitrate=N/A speed=  13x    frame=12244 fps=312 q=-0.0 size=N/A time=00:08:30.67 bitrate=N/A speed=  13x    frame=12413 fps=312 q=-0.0 size=N/A time=00:08:37.72 bitrate=N/A speed=  13x    frame=12584 fps=313 q=-0.0 size=N/A time=00:08:44.85 bitrate=N/A speed=  13x    frame=12749 fps=313 q=-0.0 size=N/A time=00:08:51.73 bitrate=N/A speed=  13x    frame=12917 fps=313 q=-0.0 size=N/A time=00:08:58.74 bitrate=N/A speed=13.1x    frame=13087 fps=313 q=-0.0 size=N/A time=00:09:05.83 bitrate=N/A speed=13.1x    frame=13274 fps=314 q=-0.0 size=N/A time=00:09:13.63 bitrate=N/A speed=13.1x    frame=13442 fps=314 q=-0.0 size=N/A time=00:09:20.64 bitrate=N/A speed=13.1x    frame=13576 fps=313 q=-0.0 size=N/A time=00:09:26.23 bitrate=N/A speed=13.1x    frame=13741 fps=313 q=-0.0 size=N/A time=00:09:33.11 bitrate=N/A speed=13.1x    frame=13890 fps=313 q=-0.0 size=N/A time=00:09:39.32 bitrate=N/A speed=13.1x    frame=14065 fps=313 q=-0.0 size=N/A time=00:09:46.62 bitrate=N/A speed=13.1x    frame=14228 fps=313 q=-0.0 size=N/A time=00:09:53.42 bitrate=N/A speed=13.1x    frame=14404 fps=314 q=-0.0 size=N/A time=00:10:00.76 bitrate=N/A speed=13.1x    frame=14574 fps=314 q=-0.0 size=N/A time=00:10:07.85 bitrate=N/A speed=13.1x    frame=14745 fps=314 q=-0.0 size=N/A time=00:10:14.98 bitrate=N/A speed=13.1x    frame=14883 fps=314 q=-0.0 size=N/A time=00:10:20.74 bitrate=N/A speed=13.1x    frame=15063 fps=314 q=-0.0 size=N/A time=00:10:28.25 bitrate=N/A speed=13.1x    frame=15202 fps=313 q=-0.0 size=N/A time=00:10:34.05 bitrate=N/A speed=13.1x    frame=15378 fps=314 q=-0.0 size=N/A time=00:10:41.39 bitrate=N/A speed=13.1x    frame=15550 fps=314 q=-0.0 size=N/A time=00:10:48.56 bitrate=N/A speed=13.1x    frame=15721 fps=314 q=-0.0 size=N/A time=00:10:55.69 bitrate=N/A speed=13.1x    frame=15869 fps=314 q=-0.0 size=N/A time=00:11:01.86 bitrate=N/A speed=13.1x    frame=16033 fps=314 q=-0.0 size=N/A time=00:11:08.70 bitrate=N/A speed=13.1x    frame=16183 fps=314 q=-0.0 size=N/A time=00:11:14.96 bitrate=N/A speed=13.1x    frame=16346 fps=314 q=-0.0 size=N/A time=00:11:21.76 bitrate=N/A speed=13.1x    frame=16493 fps=313 q=-0.0 size=N/A time=00:11:27.89 bitrate=N/A speed=13.1x    frame=16662 fps=313 q=-0.0 size=N/A time=00:11:34.94 bitrate=N/A speed=13.1x    frame=16816 fps=313 q=-0.0 size=N/A time=00:11:41.36 bitrate=N/A speed=13.1x    frame=16974 fps=313 q=-0.0 size=N/A time=00:11:47.95 bitrate=N/A speed=13.1x    frame=17112 fps=313 q=-0.0 size=N/A time=00:11:53.71 bitrate=N/A speed=  13x    frame=17291 fps=313 q=-0.0 size=N/A time=00:12:01.17 bitrate=N/A speed=13.1x    frame=17465 fps=313 q=-0.0 size=N/A time=00:12:08.43 bitrate=N/A speed=13.1x    frame=17633 fps=313 q=-0.0 size=N/A time=00:12:15.44 bitrate=N/A speed=13.1x    frame=17814 fps=314 q=-0.0 size=N/A time=00:12:22.99 bitrate=N/A speed=13.1x    frame=17964 fps=314 q=-0.0 size=N/A time=00:12:29.24 bitrate=N/A speed=13.1x    frame=18138 fps=314 q=-0.0 size=N/A time=00:12:36.50 bitrate=N/A speed=13.1x    frame=18284 fps=313 q=-0.0 size=N/A time=00:12:42.59 bitrate=N/A speed=13.1x    frame=18449 fps=314 q=-0.0 size=N/A time=00:12:49.47 bitrate=N/A speed=13.1x    frame=18620 fps=314 q=-0.0 size=N/A time=00:12:56.60 bitrate=N/A speed=13.1x    frame=18809 fps=314 q=-0.0 size=N/A time=00:13:04.49 bitrate=N/A speed=13.1x    frame=18982 fps=314 q=-0.0 size=N/A time=00:13:11.70 bitrate=N/A speed=13.1x    frame=19165 fps=315 q=-0.0 size=N/A time=00:13:19.34 bitrate=N/A speed=13.1x    frame=19301 fps=314 q=-0.0 size=N/A time=00:13:25.01 bitrate=N/A speed=13.1x    frame=19417 fps=314 q=-0.0 size=N/A time=00:13:29.85 bitrate=N/A speed=13.1x    frame=19566 fps=313 q=-0.0 size=N/A time=00:13:36.06 bitrate=N/A speed=13.1x    frame=19730 fps=313 q=-0.0 size=N/A time=00:13:42.90 bitrate=N/A speed=13.1x    frame=19906 fps=314 q=-0.0 size=N/A time=00:13:50.24 bitrate=N/A speed=13.1x    frame=20083 fps=314 q=-0.0 size=N/A time=00:13:57.62 bitrate=N/A speed=13.1x    frame=20252 fps=314 q=-0.0 size=N/A time=00:14:04.67 bitrate=N/A speed=13.1x    frame=20420 fps=314 q=-0.0 size=N/A time=00:14:11.68 bitrate=N/A speed=13.1x    frame=20574 fps=314 q=-0.0 size=N/A time=00:14:18.10 bitrate=N/A speed=13.1x    frame=20746 fps=314 q=-0.0 size=N/A time=00:14:25.28 bitrate=N/A speed=13.1x    frame=20907 fps=314 q=-0.0 size=N/A time=00:14:31.99 bitrate=N/A speed=13.1x    frame=21081 fps=314 q=-0.0 size=N/A time=00:14:39.25 bitrate=N/A speed=13.1x    frame=21234 fps=314 q=-0.0 size=N/A time=00:14:45.63 bitrate=N/A speed=13.1x    frame=21417 fps=314 q=-0.0 size=N/A time=00:14:53.26 bitrate=N/A speed=13.1x    frame=21542 fps=314 q=-0.0 size=N/A time=00:14:58.48 bitrate=N/A speed=13.1x    frame=21713 fps=314 q=-0.0 size=N/A time=00:15:05.61 bitrate=N/A speed=13.1x    frame=21887 fps=314 q=-0.0 size=N/A time=00:15:12.87 bitrate=N/A speed=13.1x    frame=22066 fps=314 q=-0.0 size=N/A time=00:15:20.33 bitrate=N/A speed=13.1x    frame=22248 fps=315 q=-0.0 size=N/A time=00:15:27.92 bitrate=N/A speed=13.1x    frame=22418 fps=315 q=-0.0 size=N/A time=00:15:35.01 bitrate=N/A speed=13.1x    frame=22594 fps=315 q=-0.0 size=N/A time=00:15:42.35 bitrate=N/A speed=13.1x    frame=22739 fps=315 q=-0.0 size=N/A time=00:15:48.40 bitrate=N/A speed=13.1x    frame=22899 fps=315 q=-0.0 size=N/A time=00:15:55.07 bitrate=N/A speed=13.1x    frame=23067 fps=315 q=-0.0 size=N/A time=00:16:02.08 bitrate=N/A speed=13.1x    frame=23225 fps=315 q=-0.0 size=N/A time=00:16:08.67 bitrate=N/A speed=13.1x    frame=23370 fps=314 q=-0.0 size=N/A time=00:16:14.72 bitrate=N/A speed=13.1x    frame=23509 fps=314 q=-0.0 size=N/A time=00:16:20.52 bitrate=N/A speed=13.1x    frame=23656 fps=314 q=-0.0 size=N/A time=00:16:26.65 bitrate=N/A speed=13.1x    frame=23822 fps=314 q=-0.0 size=N/A time=00:16:33.57 bitrate=N/A speed=13.1x    frame=23986 fps=314 q=-0.0 size=N/A time=00:16:40.41 bitrate=N/A speed=13.1x    frame=24152 fps=314 q=-0.0 size=N/A time=00:16:47.33 bitrate=N/A speed=13.1x    frame=24314 fps=314 q=-0.0 size=N/A time=00:16:54.09 bitrate=N/A speed=13.1x    frame=24494 fps=314 q=-0.0 size=N/A time=00:17:01.60 bitrate=N/A speed=13.1x    frame=24666 fps=314 q=-0.0 size=N/A time=00:17:08.77 bitrate=N/A speed=13.1x    frame=24847 fps=315 q=-0.0 size=N/A time=00:17:16.32 bitrate=N/A speed=13.1x    frame=25017 fps=315 q=-0.0 size=N/A time=00:17:23.41 bitrate=N/A speed=13.1x    frame=25195 fps=315 q=-0.0 size=N/A time=00:17:30.84 bitrate=N/A speed=13.1x    frame=25341 fps=315 q=-0.0 size=N/A time=00:17:36.93 bitrate=N/A speed=13.1x    frame=25518 fps=315 q=-0.0 size=N/A time=00:17:44.31 bitrate=N/A speed=13.1x    frame=25698 fps=315 q=-0.0 size=N/A time=00:17:51.82 bitrate=N/A speed=13.1x    frame=25874 fps=315 q=-0.0 size=N/A time=00:17:59.16 bitrate=N/A speed=13.2x    frame=26021 fps=315 q=-0.0 size=N/A time=00:18:05.29 bitrate=N/A speed=13.1x    frame=26200 fps=315 q=-0.0 size=N/A time=00:18:12.75 bitrate=N/A speed=13.2x    frame=26375 fps=316 q=-0.0 size=N/A time=00:18:20.05 bitrate=N/A speed=13.2x    frame=26558 fps=316 q=-0.0 size=N/A time=00:18:27.68 bitrate=N/A speed=13.2x    frame=26740 fps=316 q=-0.0 size=N/A time=00:18:35.28 bitrate=N/A speed=13.2x    frame=26916 fps=316 q=-0.0 size=N/A time=00:18:42.62 bitrate=N/A speed=13.2x    frame=27079 fps=316 q=-0.0 size=N/A time=00:18:49.41 bitrate=N/A speed=13.2x    frame=27235 fps=316 q=-0.0 size=N/A time=00:18:55.92 bitrate=N/A speed=13.2x    frame=27369 fps=316 q=-0.0 size=N/A time=00:19:01.51 bitrate=N/A speed=13.2x    frame=27523 fps=316 q=-0.0 size=N/A time=00:19:07.93 bitrate=N/A speed=13.2x    frame=27704 fps=316 q=-0.0 size=N/A time=00:19:15.48 bitrate=N/A speed=13.2x    frame=27867 fps=316 q=-0.0 size=N/A time=00:19:22.28 bitrate=N/A speed=13.2x    frame=28023 fps=316 q=-0.0 size=N/A time=00:19:28.79 bitrate=N/A speed=13.2x    frame=28180 fps=316 q=-0.0 size=N/A time=00:19:35.34 bitrate=N/A speed=13.2x    frame=28348 fps=316 q=-0.0 size=N/A time=00:19:42.34 bitrate=N/A speed=13.2x    frame=28514 fps=316 q=-0.0 size=N/A time=00:19:49.27 bitrate=N/A speed=13.2x    frame=28696 fps=316 q=-0.0 size=N/A time=00:19:56.86 bitrate=N/A speed=13.2x    frame=28855 fps=316 q=-0.0 size=N/A time=00:20:03.49 bitrate=N/A speed=13.2x    frame=29024 fps=316 q=-0.0 size=N/A time=00:20:10.54 bitrate=N/A speed=13.2x    frame=29164 fps=316 q=-0.0 size=N/A time=00:20:16.38 bitrate=N/A speed=13.2x    frame=29331 fps=316 q=-0.0 size=N/A time=00:20:23.34 bitrate=N/A speed=13.2x    frame=29486 fps=316 q=-0.0 size=N/A time=00:20:29.81 bitrate=N/A speed=13.2x    frame=29653 fps=316 q=-0.0 size=N/A time=00:20:36.77 bitrate=N/A speed=13.2x    frame=29807 fps=316 q=-0.0 size=N/A time=00:20:43.20 bitrate=N/A speed=13.2x    frame=29959 fps=316 q=-0.0 size=N/A time=00:20:49.53 bitrate=N/A speed=13.2x    frame=30094 fps=315 q=-0.0 size=N/A time=00:20:55.17 bitrate=N/A speed=13.1x    frame=30256 fps=315 q=-0.0 size=N/A time=00:21:01.92 bitrate=N/A speed=13.1x    frame=30393 fps=315 q=-0.0 size=N/A time=00:21:07.64 bitrate=N/A speed=13.1x    frame=30560 fps=315 q=-0.0 size=N/A time=00:21:14.60 bitrate=N/A speed=13.1x    frame=30709 fps=315 q=-0.0 size=N/A time=00:21:20.82 bitrate=N/A speed=13.1x    frame=30875 fps=315 q=-0.0 size=N/A time=00:21:27.74 bitrate=N/A speed=13.1x    frame=30999 fps=315 q=-0.0 size=N/A time=00:21:32.91 bitrate=N/A speed=13.1x    frame=31175 fps=315 q=-0.0 size=N/A time=00:21:40.25 bitrate=N/A speed=13.1x    frame=31337 fps=315 q=-0.0 size=N/A time=00:21:47.01 bitrate=N/A speed=13.1x    frame=31503 fps=315 q=-0.0 size=N/A time=00:21:53.93 bitrate=N/A speed=13.1x    frame=31676 fps=315 q=-0.0 size=N/A time=00:22:01.15 bitrate=N/A speed=13.1x    frame=31841 fps=315 q=-0.0 size=N/A time=00:22:08.03 bitrate=N/A speed=13.1x    frame=31991 fps=315 q=-0.0 size=N/A time=00:22:14.29 bitrate=N/A speed=13.1x    frame=32163 fps=315 q=-0.0 size=N/A time=00:22:21.46 bitrate=N/A speed=13.1x    frame=32331 fps=315 q=-0.0 size=N/A time=00:22:28.47 bitrate=N/A speed=13.1x    frame=32493 fps=315 q=-0.0 size=N/A time=00:22:35.22 bitrate=N/A speed=13.1x    frame=32631 fps=315 q=-0.0 size=N/A time=00:22:40.98 bitrate=N/A speed=13.1x    frame=32754 fps=314 q=-0.0 size=N/A time=00:22:46.11 bitrate=N/A speed=13.1x    frame=32870 fps=314 q=-0.0 size=N/A time=00:22:50.95 bitrate=N/A speed=13.1x    frame=33014 fps=314 q=-0.0 size=N/A time=00:22:56.95 bitrate=N/A speed=13.1x    frame=33157 fps=313 q=-0.0 size=N/A time=00:23:02.92 bitrate=N/A speed=13.1x    frame=33302 fps=313 q=-0.0 size=N/A time=00:23:08.97 bitrate=N/A speed=13.1x    frame=33453 fps=313 q=-0.0 size=N/A time=00:23:15.26 bitrate=N/A speed=13.1x    frame=33570 fps=313 q=-0.0 size=N/A time=00:23:20.14 bitrate=N/A speed=  13x    frame=33710 fps=313 q=-0.0 size=N/A time=00:23:25.98 bitrate=N/A speed=  13x    frame=33824 fps=312 q=-0.0 size=N/A time=00:23:30.74 bitrate=N/A speed=  13x    frame=33958 fps=312 q=-0.0 size=N/A time=00:23:36.33 bitrate=N/A speed=  13x    frame=34110 fps=312 q=-0.0 size=N/A time=00:23:42.67 bitrate=N/A speed=  13x    frame=34258 fps=312 q=-0.0 size=N/A time=00:23:48.84 bitrate=N/A speed=  13x    frame=34362 fps=311 q=-0.0 size=N/A time=00:23:53.18 bitrate=N/A speed=  13x    frame=34491 fps=311 q=-0.0 size=N/A time=00:23:58.56 bitrate=N/A speed=  13x    frame=34637 fps=311 q=-0.0 size=N/A time=00:24:04.65 bitrate=N/A speed=  13x    [Parsed_ssim_16 @ 0000019769974940] SSIM Y:0.994159 (22.335236) U:0.993974 (22.199674) V:0.993580 (21.924839) All:0.994032 (22.241568)
[out#0/null @ 0000019761e78a00] video:14903KiB audio:271276KiB subtitle:0KiB other streams:0KiB global headers:0KiB muxing overhead: unknown
frame=34683 fps=311 q=-0.0 Lsize=N/A time=00:24:06.57 bitrate=N/A speed=  13x    
